REM DIRINDEX 1\5,1\2\6,1\2\7,1\3\8,1\3\9,1\4\10,1\4\11,1\4\12
REM DIRNAME folder01,folder02,folder03,folder04,folder05,folder06,folder07,folder08,folder09,folder10,folder11,folder12
TITLE ""
FILE "EJE_DB3000_5th_4B_25.mp3" MP3
  TRACK 01 AUDIO
    TITLE "0:"
    INDEX 01 00:00:00
  TRACK 02 AUDIO
    TITLE "10:cjc026_09126"
    INDEX 01 00:00:05
  TRACK 03 AUDIO
    TITLE "0:"
    INDEX 01 00:00:64
  TRACK 04 AUDIO
    TITLE "11:cjc026_09127"
    INDEX 01 00:01:15
  TRACK 05 AUDIO
    TITLE "0:"
    INDEX 01 00:02:16
  TRACK 06 AUDIO
    TITLE "12:cjc026_09128"
    INDEX 01 00:02:42
  TRACK 07 AUDIO
    TITLE "0:"
    INDEX 01 00:03:25
  TRACK 08 AUDIO
    TITLE "10:cjc026_09129"
    INDEX 01 00:03:51
  TRACK 09 AUDIO
    TITLE "0:"
    INDEX 01 00:04:50
  TRACK 10 AUDIO
    TITLE "11:cjc026_09130"
    INDEX 01 00:05:03
  TRACK 11 AUDIO
    TITLE "0:"
    INDEX 01 00:06:20
  TRACK 12 AUDIO
    TITLE "12:cjc026_09131"
    INDEX 01 00:06:47
  TRACK 13 AUDIO
    TITLE "0:"
    INDEX 01 00:07:45
  TRACK 14 AUDIO
    TITLE "10:cjc026_09132"
    INDEX 01 00:07:72
  TRACK 15 AUDIO
    TITLE "0:"
    INDEX 01 00:08:72
  TRACK 16 AUDIO
    TITLE "11:cjc026_09133"
    INDEX 01 00:09:24
  TRACK 17 AUDIO
    TITLE "0:"
    INDEX 01 00:10:39
  TRACK 18 AUDIO
    TITLE "12:cjc026_09134"
    INDEX 01 00:10:66
  TRACK 19 AUDIO
    TITLE "0:"
    INDEX 01 00:11:68
  TRACK 20 AUDIO
    TITLE "10:cjc026_09135"
    INDEX 01 00:12:16
  TRACK 21 AUDIO
    TITLE "0:"
    INDEX 01 00:13:20
  TRACK 22 AUDIO
    TITLE "11:cjc026_09136"
    INDEX 01 00:13:47
  TRACK 23 AUDIO
    TITLE "0:"
    INDEX 01 00:14:64
  TRACK 24 AUDIO
    TITLE "12:cjc026_09137"
    INDEX 01 00:15:15
  TRACK 25 AUDIO
    TITLE "0:"
    INDEX 01 00:16:18
  TRACK 26 AUDIO
    TITLE "10:cjc026_09138"
    INDEX 01 00:16:44
  TRACK 27 AUDIO
    TITLE "0:"
    INDEX 01 00:17:47
  TRACK 28 AUDIO
    TITLE "11:cjc026_09139"
    INDEX 01 00:17:74
  TRACK 29 AUDIO
    TITLE "0:"
    INDEX 01 00:19:16
  TRACK 30 AUDIO
    TITLE "12:cjc026_09140"
    INDEX 01 00:19:42
  TRACK 31 AUDIO
    TITLE "0:"
    INDEX 01 00:20:43
  TRACK 32 AUDIO
    TITLE "10:cjc026_09141"
    INDEX 01 00:20:73
  TRACK 33 AUDIO
    TITLE "0:"
    INDEX 01 00:21:60
  TRACK 34 AUDIO
    TITLE "11:cjc026_09142"
    INDEX 01 00:22:13
  TRACK 35 AUDIO
    TITLE "0:"
    INDEX 01 00:23:26
  TRACK 36 AUDIO
    TITLE "12:cjc026_09143"
    INDEX 01 00:23:53
  TRACK 37 AUDIO
    TITLE "0:"
    INDEX 01 00:24:41
  TRACK 38 AUDIO
    TITLE "10:cjc026_09144"
    INDEX 01 00:24:71
  TRACK 39 AUDIO
    TITLE "0:"
    INDEX 01 00:25:72
  TRACK 40 AUDIO
    TITLE "11:cjc026_09145"
    INDEX 01 00:26:24
  TRACK 41 AUDIO
    TITLE "0:"
    INDEX 01 00:27:38
  TRACK 42 AUDIO
    TITLE "12:cjc026_09146"
    INDEX 01 00:27:67
  TRACK 43 AUDIO
    TITLE "0:"
    INDEX 01 00:28:68
  TRACK 44 AUDIO
    TITLE "10:cjc026_09147"
    INDEX 01 00:29:21
  TRACK 45 AUDIO
    TITLE "0:"
    INDEX 01 00:30:26
  TRACK 46 AUDIO
    TITLE "11:cjc026_09148"
    INDEX 01 00:30:52
  TRACK 47 AUDIO
    TITLE "0:"
    INDEX 01 00:32:00
  TRACK 48 AUDIO
    TITLE "12:cjc026_09149"
    INDEX 01 00:32:27
  TRACK 49 AUDIO
    TITLE "0:"
    INDEX 01 00:33:32
  TRACK 50 AUDIO
    TITLE "10:cjc026_09150"
    INDEX 01 00:33:56
  TRACK 51 AUDIO
    TITLE "0:"
    INDEX 01 00:34:51
  TRACK 52 AUDIO
    TITLE "11:cjc026_09151"
    INDEX 01 00:34:73
  TRACK 53 AUDIO
    TITLE "0:"
    INDEX 01 00:36:23
  TRACK 54 AUDIO
    TITLE "12:cjc026_09152"
    INDEX 01 00:36:46
  TRACK 55 AUDIO
    TITLE "0:"
    INDEX 01 00:37:42
  TRACK 56 AUDIO
    TITLE "10:cjc026_09153"
    INDEX 01 00:37:63
  TRACK 57 AUDIO
    TITLE "0:"
    INDEX 01 00:38:49
  TRACK 58 AUDIO
    TITLE "11:cjc026_09154"
    INDEX 01 00:39:00
  TRACK 59 AUDIO
    TITLE "0:"
    INDEX 01 00:39:66
  TRACK 60 AUDIO
    TITLE "12:cjc026_09155"
    INDEX 01 00:40:17
  TRACK 61 AUDIO
    TITLE "0:"
    INDEX 01 00:41:00
  TRACK 62 AUDIO
    TITLE "10:cjc026_09156"
    INDEX 01 00:41:26
  TRACK 63 AUDIO
    TITLE "0:"
    INDEX 01 00:42:14
  TRACK 64 AUDIO
    TITLE "11:cjc026_09157"
    INDEX 01 00:42:43
  TRACK 65 AUDIO
    TITLE "0:"
    INDEX 01 00:43:39
  TRACK 66 AUDIO
    TITLE "12:cjc026_09158"
    INDEX 01 00:43:64
  TRACK 67 AUDIO
    TITLE "0:"
    INDEX 01 00:44:54
  TRACK 68 AUDIO
    TITLE "10:cjc026_09159"
    INDEX 01 00:45:06
  TRACK 69 AUDIO
    TITLE "0:"
    INDEX 01 00:46:09
  TRACK 70 AUDIO
    TITLE "11:cjc026_09160"
    INDEX 01 00:46:35
  TRACK 71 AUDIO
    TITLE "0:"
    INDEX 01 00:47:30
  TRACK 72 AUDIO
    TITLE "12:cjc026_09161"
    INDEX 01 00:47:56
  TRACK 73 AUDIO
    TITLE "0:"
    INDEX 01 00:48:59
  TRACK 74 AUDIO
    TITLE "10:cjc026_09162"
    INDEX 01 00:49:10
  TRACK 75 AUDIO
    TITLE "0:"
    INDEX 01 00:49:72
  TRACK 76 AUDIO
    TITLE "11:cjc026_09163"
    INDEX 01 00:50:25
  TRACK 77 AUDIO
    TITLE "0:"
    INDEX 01 00:51:44
  TRACK 78 AUDIO
    TITLE "12:cjc026_09164"
    INDEX 01 00:51:69
  TRACK 79 AUDIO
    TITLE "0:"
    INDEX 01 00:52:55
